HIERARCHY
ROOT Hips
{
 OFFSET 0.000000 0.000000 0.000000
 CHANNELS 6 Xposition Yposition Zposition Yrotation Xrotation Zrotation
 JOINT Chest
 {
  OFFSET 0.000000 9.588913 -0.003946
  CHANNELS 3 Yrotation Xrotation Zrotation
  JOINT Chest2
  {
   OFFSET 0.000000 9.541882 0.008053
   CHANNELS 3 Yrotation Xrotation Zrotation
   JOINT Chest3
   {
    OFFSET 0.000000 9.501360 0.000000
    CHANNELS 3 Yrotation Xrotation Zrotation
    JOINT Chest4
    {
     OFFSET 0.000000 9.491660 0.000000
     CHANNELS 3 Yrotation Xrotation Zrotation
     JOINT Neck
     {
      OFFSET 0.000000 14.331917 0.000000
      CHANNELS 3 Yrotation Xrotation Zrotation
      JOINT Head
      {
       OFFSET 0.000000 8.884799 0.017034
       CHANNELS 3 Yrotation Xrotation Zrotation
       End Site
       {
        OFFSET 0.000000 16.896195 0.008993
       }
      }
     }
     JOINT RightCollar
     {
      OFFSET -2.923010 9.499495 0.000000
      CHANNELS 3 Yrotation Xrotation Zrotation
      JOINT RightShoulder
      {
       OFFSET -13.795216 0.000000 0.000000
       CHANNELS 3 Yrotation Xrotation Zrotation
       JOINT RightElbow
       {
        OFFSET -30.272209 0.000000 0.000000
        CHANNELS 3 Yrotation Xrotation Zrotation
        JOINT RightWrist
        {
         OFFSET -24.478199 0.000000 0.000000
         CHANNELS 3 Yrotation Xrotation Zrotation
         End Site
         {
          OFFSET -18.090752 0.000000 0.000000
         }
        }
       }
      }
     }
     JOINT LeftCollar
     {
      OFFSET 2.923010 9.499495 0.000000
      CHANNELS 3 Yrotation Xrotation Zrotation
      JOINT LeftShoulder
      {
       OFFSET 13.795216 0.000000 0.000000
       CHANNELS 3 Yrotation Xrotation Zrotation
       JOINT LeftElbow
       {
        OFFSET 30.272209 0.000000 0.000000
        CHANNELS 3 Yrotation Xrotation Zrotation
        JOINT LeftWrist
        {
         OFFSET 24.478199 0.000000 0.000000
         CHANNELS 3 Yrotation Xrotation Zrotation
         End Site
         {
          OFFSET 18.090752 0.000000 0.000000
         }
        }
       }
      }
     }
    }
   }
  }
 }
 JOINT RightHip
 {
  OFFSET -7.826875 0.019532 0.001973
  CHANNELS 3 Yrotation Xrotation Zrotation
  JOINT RightKnee
  {
   OFFSET 0.000000 -40.546152 -0.001885
   CHANNELS 3 Yrotation Xrotation Zrotation
   JOINT RightAnkle
   {
    OFFSET 0.000000 -39.417092 -0.003189
    CHANNELS 3 Yrotation Xrotation Zrotation
    JOINT RightToe
    {
     OFFSET 0.000000 -7.579396 17.243563
     CHANNELS 3 Yrotation Xrotation Zrotation
     End Site
     {
      OFFSET 0.000000 -1.500329 6.694466
     }
    }
   }
  }
 }
 JOINT LeftHip
 {
  OFFSET 7.826875 0.019532 0.001973
  CHANNELS 3 Yrotation Xrotation Zrotation
  JOINT LeftKnee
  {
   OFFSET 0.000000 -40.546152 -0.001885
   CHANNELS 3 Yrotation Xrotation Zrotation
   JOINT LeftAnkle
   {
    OFFSET 0.000000 -39.417092 -0.003189
    CHANNELS 3 Yrotation Xrotation Zrotation
    JOINT LeftToe
    {
     OFFSET 0.000000 -7.579396 17.243563
     CHANNELS 3 Yrotation Xrotation Zrotation
     End Site
     {
      OFFSET 0.000000 -1.500329 6.694466
     }
    }
   }
  }
 }
}
MOTION
Frames: 5
Frame Time: 0.008333
0.000000 87.345680 0.000000 0.000000 -5.767889 0.000000 0.000000 11.653876 0.000000 0.000000 -5.885988 0.000000 0.000000 -0.000000 0.000000 0.000000 -0.000000 0.000000 0.000000 12.528808 0.000000 0.000000 0.711711 0.000000 0.000000 -0.000000 0.000000 0.000000 -0.000000 0.000000 2.309063 -0.000000 0.000000 -2.309063 -0.000000 -0.000000 0.000000 -0.000000 0.000000 0.000000 0.000000 0.000000 -2.309063 0.000000 0.000000 2.309063 -0.000000 0.000000 0.000000 8.520374 0.000000 0.000000 1.905768 0.000000 -0.000000 -4.658254 0.000000 0.000000 -0.000000 0.000000 0.000000 8.520374 0.000000 0.000000 1.905768 0.000000 -0.000000 -4.658254 0.000000 0.000000 -0.000000 0.000000
2.457033 88.635995 -8.943488 46.418018 -4.762988 1.106885 -1.186126 4.195532 0.200495 -0.755133 2.379210 0.436025 -0.941285 2.974890 0.540241 -0.755132 2.379211 0.436026 0.623437 18.787888 -2.052149 1.127611 -5.880728 -2.315435 3.786700 -0.572846 -0.999451 -4.692647 -10.208496 86.140712 2.193644 2.616628 -1.138203 -5.032320 -2.683623 1.267540 -4.377709 -1.668479 -1.433239 2.365228 -2.689111 -89.024367 -1.209920 4.378135 0.132905 2.639445 -2.054724 -1.765922 -2.928928 -4.400307 -5.442542 2.381982 24.286536 0.974505 -1.692860 -12.335605 6.541794 -0.018164 -0.977287 -0.915296 -0.278860 6.779251 -2.003095 3.108315 2.469104 -0.619824 2.317574 -4.769216 1.308140 0.148672 0.999654 0.068998
2.454839 88.649274 -8.927311 46.353455 -4.808565 1.069676 -1.222893 4.222452 0.218772 -0.773123 2.397045 0.440984 -0.963726 2.997214 0.546288 -0.773122 2.397046 0.440984 0.606281 18.834597 -2.078385 1.115616 -5.828144 -2.339854 3.819265 -0.526499 -0.989750 -4.618599 -10.496193 86.292721 2.164431 2.491373 -1.214146 -5.033879 -2.667284 1.299776 -4.422593 -1.674267 -1.452358 2.256938 -2.730252 -88.894688 -1.191750 4.405483 0.123649 2.644259 -2.055002 -1.765168 -2.887125 -4.523711 -5.449097 2.490365 24.502372 1.025855 -1.865218 -12.411690 6.805254 -0.022178 -0.837429 -0.894332 -0.335702 6.999585 -1.966160 3.192123 2.142617 -0.629835 2.351424 -4.590573 1.303701 0.137024 0.967370 0.067560
2.447674 88.667907 -8.895716 46.321305 -4.834730 1.008433 -1.263897 4.238047 0.253051 -0.791597 2.405444 0.450199 -0.986755 3.007753 0.557670 -0.791597 2.405444 0.450199 0.581893 18.899805 -2.105242 1.096141 -5.754945 -2.363445 3.842241 -0.478288 -0.988870 -4.563545 -10.747095 86.481534 2.160375 2.339227 -1.295035 -5.034812 -2.654683 1.320868 -4.463452 -1.679398 -1.465172 2.157632 -2.770281 -88.787711 -1.152113 4.418268 0.125284 2.651324 -2.062990 -1.756996 -2.882132 -4.595092 -5.426197 2.556861 24.572072 1.041715 -2.001023 -12.512614 6.976995 -0.020970 -0.639933 -0.799166 -0.374370 7.194469 -1.894337 3.269564 1.834468 -0.635088 2.354402 -4.412564 1.288244 0.125328 0.927701 0.064649
2.435025 88.692324 -8.845749 46.321827 -4.832066 0.926406 -1.307401 4.237957 0.300534 -0.810447 2.403675 0.463125 -1.010240 3.005593 0.573711 -0.810447 2.403676 0.463125 0.551206 18.981172 -2.130249 1.069590 -5.663740 -2.383774 3.859252 -0.431732 -0.994582 -4.528468 -10.954247 86.702856 2.187475 2.155344 -1.379560 -5.030602 -2.655658 1.333178 -4.499500 -1.687627 -1.469232 2.066924 -2.804623 -88.708635 -1.099058 4.420091 0.139956 2.660222 -2.076088 -1.743678 -2.900230 -4.619298 -5.370069 2.591310 24.493768 1.026507 -2.114783 -12.629860 7.005408 -0.014349 -0.404821 -0.606882 -0.394684 7.351586 -1.787002 3.326843 1.551780 -0.638073 2.336207 -4.237980 1.260752 0.112564 0.879278 0.060098
